{"title":"Attack on Titan ep 1-13","uid":10304958,"size":2742253892,"categoryP":"video","categoryS":"tv_shows","magnet":"?xt=urn:btih:f620119e4cf223b927cd08f3d72cd88bbda728aa&amp;dn=Attack+on+Titan+ep+1-13&amp;tr=udp%3A%2F%2Ftracker.openbittorrent.com%3A80&amp;tr=udp%3A%2F%2Fopen.demonii.com%3A1337&amp;tr=udp%3A%2F%2Ftracker.coppersurfer.tk%3A6969&amp;tr=udp%3A%2F%2Fexodus.desync.com%3A6969","seeders":1,"leechers":0,"uploader":"p7trick","files":-1,"time":1402025710,"description":"watchcartoononline\n\nAttack on Titan (Shingeki no Kyojin) ep 1-13 ENGLISH DUBBED\n_________________________________________________________\n\nFormat                                   : MPEG-4\nFormat profile                           : Base Media\nCodec ID                                 : isom\nFile size                                : 185 MiB\nDuration                                 : 23mn 43s\nOverall bit rate mode                    : Variable\nOverall bit rate                         : 1 091 Kbps\nEncoded date                             : UTC 2014-05-04 14:56:18\nTagged date                              : UTC 2014-05-04 14:56:18\n\nVideo\nID                                       : 1\nFormat                                   : AVC\nFormat/Info                              : Advanced Video Codec\nFormat profile                           : &lt;a class=&quot;__cf_email__&quot; href=&quot;/cdn-cgi/l/email-protection&quot; data-cfemail=&quot;8cceedffe9e0e5e2e9ccc0bfa2bc&quot;&gt;[email&amp;#160;protected]&lt;/a&gt;&lt;script cf-hash='f9e31' type=&quot;text/javascript&quot;&gt;\n/* &lt;![CDATA[ */!function(){try{var t=&quot;currentScript&quot;in document?document.currentScript:function(){for(var t=document.getElementsByTagName(&quot;script&quot;),e=t.length;e--;)if(t[e].getAttribute(&quot;cf-hash&quot;))return t[e]}();if(t&amp;&amp;t.previousSibling){var e,r,n,i,c=t.previousSibling,a=c.getAttribute(&quot;data-cfemail&quot;);if(a){for(e=&quot;&quot;,r=parseInt(a.substr(0,2),16),n=2;a.length-n;n+=2)i=parseInt(a.substr(n,2),16)^r,e+=String.fromCharCode(i);e=document.createTextNode(e),c.parentNode.replaceChild(e,c)}}}catch(u){}}();/* ]]&gt; */&lt;/script&gt;\nFormat settings, CABAC                   : No\nFormat settings, ReFrames                : 3 frames\nFormat settings, GOP                     : N=1\nCodec ID                                 : avc1\nCodec ID/Info                            : Advanced Video Coding\nDuration                                 : 23mn 43s\nBit rate                                 : 1 011 Kbps\nMaximum bit rate                         : 8 526 Kbps\nWidth                                    : 854 pixels\nHeight                                   : 480 pixels\nDisplay aspect ratio                     : 16:9\nFrame rate mode                          : Constant\nFrame rate                               : 23.976 fps\nColor space                              : YUV\nChroma subsampling                       : 4:2:0\nBit depth                                : 8 bits\nScan type                                : Progressive\nBits/(Pixel*Frame)                       : 0.103\nStream size                              : 172 MiB (93%)\nWriting library                          : Zencoder Video Encoding System\nEncoded date                             : UTC 2014-05-04 14:52:22\nTagged date                              : UTC 2014-05-04 14:56:18\n\nAudio\nID                                       : 2\nFormat                                   : AAC\nFormat/Info                              : Advanced Audio Codec\nFormat profile                           : LC\nCodec ID                                 : 40\nDuration                                 : 23mn 43s\nBit rate mode                            : Variable\nBit rate                                 : 77.4 Kbps\nMaximum bit rate                         : 98.1 Kbps\nChannel(s)                               : 2 channels\nChannel positions                        : Front: L R\nSampling rate                            : 48.0 KHz\nCompression mode                         : Lossy\nStream size                              : 13.1 MiB (7%)\nLanguage                                 : English\n_________________________________________________________\n\nSummary:\nSeveral hundred years ago, humans were nearly exterminated by giants. Giants are typically several stories tall, seem to have no intelligence, devour human beings and, worst of all, seem to do it for the pleasure rather than as a food source. A small percentage of humanity survived by walling themselves in a city protected by extremely high walls, even taller than the biggest of giants.\n\nFor updates/requests:\nTwitter - @p7tricktorrent\nFacebook - /p7tricktorrent\nTPB - /user/p7trick/\nKAT - /user/iPirate7\n_________________________________________________________\n\nSEED!\n\nshare ratio:\n&quot;Scumbag = 0.1:1\nLeecher = 0.999:1\nMinimum = 1:1\nGood = 3:1\nGreat = 5:1\nAwesome = 10:1\n1337 = 100:1&quot;\t\t\t\n","torrent":{"xt":"urn:btih:f620119e4cf223b927cd08f3d72cd88bbda728aa","amp;dn":"Attack+on+Titan+ep+1-13","amp;tr":["udp%3A%2F%2Ftracker.openbittorrent.com%3A80","udp%3A%2F%2Fopen.demonii.com%3A1337","udp%3A%2F%2Ftracker.coppersurfer.tk%3A6969","udp%3A%2F%2Fexodus.desync.com%3A6969"],"infoHash":"f620119e4cf223b927cd08f3d72cd88bbda728aa","infoHashBuffer":{"type":"Buffer","data":[246,32,17,158,76,242,35,185,39,205,8,243,215,44,216,139,189,167,40,170]},"announce":[],"urlList":[]}}